HIERARCHY
ROOT Hips
{
  OFFSET 0 89.5177 0.535
  CHANNELS 6 Xposition Yposition Zposition Zrotation Xrotation Yrotation
  JOINT Spine
  {
    OFFSET 12.0259 -0.162855 1.69034e-005
    CHANNELS 3 Zrotation Xrotation Yrotation
    JOINT Spine1
    {
      OFFSET 15.3169 -0.0121922 0
      CHANNELS 3 Zrotation Xrotation Yrotation
      JOINT Spine2
      {
        OFFSET 15.3176 -0.0121908 0
        CHANNELS 3 Zrotation Xrotation Yrotation
        JOINT Neck
        {
          OFFSET 19.9142 1.56338 0
          CHANNELS 3 Zrotation Xrotation Yrotation
          JOINT Head
          {
            OFFSET 6.92651 0 0
            CHANNELS 3 Zrotation Xrotation Yrotation
            End Site
            {
              OFFSET 20.7666 0 0
            }
          }
          JOINT LeftShoulder
          {
            OFFSET -6.20654 0.708824 7.28219
            CHANNELS 3 Zrotation Xrotation Yrotation
            JOINT LeftArm
            {
              OFFSET 14.108 0 -1.52588e-005
              CHANNELS 3 Zrotation Xrotation Yrotation
              JOINT LeftForeArm
              {
                OFFSET 28.5802 0 0
                CHANNELS 3 Zrotation Xrotation Yrotation
                JOINT LeftHand
                {
                  OFFSET 27.092 0 0
                  CHANNELS 3 Zrotation Xrotation Yrotation
                  End Site
                  {
                    OFFSET 9.55928 -0.186424 0.145352
                  }
                }
              }
            }
          }
          JOINT RightShoulder
          {
            OFFSET -6.20654 0.708866 -7.28218
            CHANNELS 3 Zrotation Xrotation Yrotation
            JOINT RightArm
            {
              OFFSET 14.108 0 1.52588e-005
              CHANNELS 3 Zrotation Xrotation Yrotation
              JOINT RightForeArm
              {
                OFFSET 28.5802 0 0
                CHANNELS 3 Zrotation Xrotation Yrotation
                JOINT RightHand
                {
                  OFFSET 27.092 0 0
                  CHANNELS 3 Zrotation Xrotation Yrotation
                  End Site
                  {
                    OFFSET 9.55929 -0.186417 -0.145354
                  }
                }
              }
            }
          }
        }
      }
    }
  }
  JOINT LeftUpLeg
  {
    OFFSET 0.005 -0.535 8.837
    CHANNELS 3 Zrotation Xrotation Yrotation
    JOINT LeftLeg
    {
      OFFSET 39.9035 0 0
      CHANNELS 3 Zrotation Xrotation Yrotation
      JOINT LeftFoot
      {
        OFFSET 39.6689 0 0
        CHANNELS 3 Zrotation Xrotation Yrotation
        JOINT LeftToe
        {
          OFFSET 10.1624 13.6296 0
          CHANNELS 3 Zrotation Xrotation Yrotation
          End Site
          {
            OFFSET 8.38147 0 0
          }
        }
      }
    }
  }
  JOINT RightUpLeg
  {
    OFFSET 0.005 -0.535 -8.837
    CHANNELS 3 Zrotation Xrotation Yrotation
    JOINT RightLeg
    {
      OFFSET 39.9035 0 0
      CHANNELS 3 Zrotation Xrotation Yrotation
      JOINT RightFoot
      {
        OFFSET 39.6689 0 0
        CHANNELS 3 Zrotation Xrotation Yrotation
        JOINT RightToe
        {
          OFFSET 10.1624 13.6296 0
          CHANNELS 3 Zrotation Xrotation Yrotation
          End Site
          {
            OFFSET 8.38147 0 0
          }
        }
      }
    }
  }
}
MOTION
Frames:	9
Frame Time:	0.0333333
528.456 85.4597 -175.331 138.207 -79.5688 47.1568 -1.27407 -0.372266 -0.465507 -2.5512 -0.733613 -0.939019 -2.5512 -0.733613 -0.939028 -8.30768e-012 -9.0191e-006 -5.27751e-005 16.0184 5.32476 -3.95737 178.626 -13.9873 -95.6674 -4.37344 -49.1573 9.5321 -5.52204e-006 -3.18055e-015 7.95139e-016 -43.5911 -26.657 -28.4433 178.852 8.884 97.3915 68.172 63.2503 -72.7105 -1.35682 -4.77083e-015 -9.93923e-017 -37.3145 20.4822 23.2091 -18.8052 4.73505 -176.644 -34.5297 0 -7.95139e-016 23.6864 3.85255 -1.82437 90 1.51661e-020 -0 -17.1362 -5.80013 -178.498 -33.0145 -3.97569e-016 8.94531e-016 23.5552 -2.06029 -1.85989 90 2.14695e-020 -7.95139e-016 
528.481 85.4586 -175.335 138.313 -79.5578 47.2711 -1.27794 -0.369194 -0.466667 -2.55893 -0.727413 -0.941295 -2.55893 -0.727413 -0.941304 -8.30768e-012 -9.0191e-006 -5.27751e-005 16.0865 5.16903 -3.98934 178.645 -13.9519 -95.605 -4.49379 -48.9094 9.42881 -5.44118e-006 -3.18055e-015 -0 -43.6663 -26.8277 -28.5956 178.86 8.89308 97.3377 68.3606 63.2509 -72.8951 -1.31987 1.59028e-015 -4.96962e-016 -37.281 20.5262 23.2006 -18.8204 4.74009 -176.633 -34.5226 -1.59028e-015 -0 23.6856 3.8519 -1.84396 90 1.47869e-020 -3.18055e-015 -17.1616 -5.83584 -178.492 -33.0215 0 -5.96354e-016 23.5574 -2.08081 -1.8805 90 -1.09006e-021 -0 
528.503 85.4578 -175.343 138.363 -79.5388 47.3185 -1.28017 -0.372108 -0.466434 -2.55941 -0.733266 -0.936562 -2.55941 -0.733266 -0.936571 -8.30688e-012 -9.0191e-006 -5.27751e-005 16.2089 5.14455 -4.03579 178.645 -13.9233 -95.6134 -4.42574 -48.839 9.53192 -5.36207e-006 -1.59028e-014 2.38542e-015 -43.6725 -26.9301 -28.7216 178.869 8.88476 97.282 68.1467 63.1806 -72.7165 -1.31545 -1.59028e-015 3.97569e-016 -37.2862 20.557 23.2436 -18.8397 4.72109 -176.611 -34.5215 1.59028e-015 -0 23.688 3.85277 -1.86856 90 -4.85314e-020 -1.59028e-015 -17.1702 -5.7945 -178.459 -33.0129 0 -2.98177e-016 23.5601 -2.04734 -1.90437 90 2.65406e-021 -0 
528.521 85.457 -175.354 138.339 -79.5129 47.2905 -1.28259 -0.380342 -0.465854 -2.55968 -0.749808 -0.931831 -2.55969 -0.749808 -0.93184 -8.30748e-012 -9.0191e-006 -5.27751e-005 16.285 5.12918 -4.05669 178.649 -13.9528 -95.5867 -4.4655 -48.7597 9.55991 -5.28477e-006 0 -7.95139e-016 -43.6588 -26.9419 -28.6875 178.882 8.85711 97.2222 67.7959 63.1405 -72.3854 -1.28796 1.59028e-015 -4.96962e-016 -37.2916 20.6343 23.3025 -18.8511 4.7138 -176.602 -34.5206 -3.18055e-015 -7.95139e-016 23.6903 3.85476 -1.87709 90 -9.70628e-020 1.59028e-015 -17.1711 -5.80147 -178.451 -33.0043 0 -9.93923e-017 23.5666 -2.04274 -1.91078 90 2.31756e-020 1.59028e-015 
528.536 85.4563 -175.367 138.332 -79.4936 47.2861 -1.28485 -0.383751 -0.465098 -2.55988 -0.756643 -0.933445 -2.55988 -0.756643 -0.933454 -8.30708e-012 -9.0191e-006 -5.27751e-005 16.3365 5.12574 -4.07994 178.651 -13.95 -95.5804 -4.47833 -48.8727 9.59863 -5.20931e-006 -9.54166e-015 1.59028e-015 -43.7067 -26.9461 -28.666 178.885 8.85453 97.2069 67.7879 63.131 -72.359 -1.24186 -4.77083e-015 -9.93923e-017 -37.3335 20.6698 23.3604 -18.8568 4.70883 -176.595 -34.5145 1.59028e-015 -1.59028e-015 23.6931 3.85666 -1.89016 90 2.91947e-020 -0 -17.1825 -5.81565 -178.443 -33.0052 3.97569e-016 -1.98785e-016 23.5699 -2.0306 -1.9249 90 3.31402e-020 -1.59028e-015 
528.546 85.4557 -175.385 138.352 -79.4801 47.3156 -1.28679 -0.387994 -0.464343 -2.56051 -0.765137 -0.936442 -2.56051 -0.765137 -0.936452 -8.30748e-012 -9.0191e-006 -5.27751e-005 16.3684 5.13955 -4.11227 178.649 -13.9379 -95.5915 -4.44808 -48.8654 9.63757 -5.13574e-006 -9.54166e-015 -7.95139e-016 -43.632 -26.9144 -28.644 178.883 8.84448 97.2264 67.8116 63.1234 -72.344 -1.21934 1.59028e-015 6.95746e-016 -37.3038 20.6391 23.3219 -18.851 4.70236 -176.599 -34.4998 -1.59028e-015 -7.95139e-016 23.696 3.85784 -1.90132 90 -1.57727e-019 -0 -17.1736 -5.79097 -178.44 -32.9986 -3.97569e-016 -2.98177e-016 23.5857 -2.01435 -1.9326 90 -1.4313e-020 -0 
528.556 85.455 -175.403 138.416 -79.4627 47.3823 -1.28816 -0.394997 -0.463762 -2.5671 -0.77329 -0.938057 -2.5671 -0.77329 -0.938066 -8.30728e-012 -9.0191e-006 -5.27751e-005 16.3859 5.13184 -4.09555 178.648 -13.9296 -95.5994 -4.50474 -48.7923 9.55029 -5.06411e-006 -3.18055e-015 -0 -43.6537 -26.893 -28.6425 178.881 8.85476 97.2291 67.8117 63.1225 -72.319 -1.23182 4.77083e-015 -6.95746e-016 -37.3077 20.6164 23.3309 -18.8455 4.69081 -176.606 -34.4856 -1.59028e-015 -0 23.7063 3.82539 -1.90638 90 -2.35377e-018 -0 -17.1743 -5.78066 -178.432 -32.9894 1.98785e-016 -4.96962e-016 23.5967 -2.00531 -1.94069 90 -2.03794e-021 7.95139e-016 
528.563 85.4543 -175.427 138.556 -79.4602 47.5372 -1.28869 -0.400167 -0.463529 -2.58067 -0.789331 -0.935789 -2.58067 -0.789331 -0.935799 -8.30728e-012 -9.0191e-006 -5.27751e-005 16.409 5.13642 -4.11472 178.645 -13.9306 -95.6116 -4.44569 -48.9855 9.5387 -4.99446e-006 3.18055e-015 -2.38542e-015 -43.6513 -26.812 -28.5463 178.87 8.86149 97.2952 67.881 63.1396 -72.4007 -1.26084 0 -3.97569e-016 -37.3301 20.6008 23.3164 -18.8308 4.6919 -176.61 -34.4604 -1.59028e-015 -0 23.714 3.8126 -1.91564 90 4.92897e-021 -1.59028e-015 -17.1773 -5.78072 -178.439 -32.9878 1.98785e-016 -2.98177e-016 23.612 -2.01578 -1.94725 90 -2.83416e-020 -7.95139e-016 
528.567 85.4539 -175.458 138.724 -79.4929 47.7207 -1.28716 -0.40077 -0.463641 -2.57947 -0.790307 -0.956582 -2.57947 -0.790307 -0.956591 -8.30748e-012 -9.0191e-006 -5.27751e-005 16.3924 5.12154 -4.05856 178.614 -13.9801 -95.7178 -4.47107 -48.8559 9.53031 -4.92685e-006 -1.27222e-014 1.59028e-015 -43.6466 -26.7906 -28.5539 178.858 8.89402 97.3451 68.0672 63.1453 -72.6042 -1.27851 -1.59028e-015 5.96354e-016 -37.3372 20.5613 23.2754 -18.7839 4.71661 -176.609 -34.4311 0 -0 23.7274 3.79673 -1.92697 90 -2.08533e-020 -3.18055e-015 -17.1566 -5.73845 -178.443 -32.9858 0 3.97569e-016 23.6267 -2.04466 -1.94613 90 4.45503e-021 -1.59028e-015 
